<svg width="149" height="90" viewBox="0 0 149 90" fill="none" xmlns="http://www.w3.org/2000/svg">
<path d="M26 3.04H34.19V54H26V3.04ZM53.5368 3.04L69.5668 42.94L64.8768 42.03L79.7868 3.04H89.4468L66.6268 56.38L43.8068 3.04H53.5368ZM87.057 54L109.597 0.939999H110.087L132.627 54H123.247L107.357 13.75L113.237 9.76L95.107 54H87.057ZM101.197 35.1H118.627L121.427 42.03H98.747L101.197 35.1Z" fill="black"/>
<line y1="58.5" x2="149" y2="58.5" stroke="black"/>
<path d="M18.06 65.92H20.94L14.07 73.66L21.51 82H18.45L11.19 73.84V82H8.55V65.92H11.19V73.72L18.06 65.92ZM30.053 65.62C31.433 65.62 32.613 65.92 33.593 66.52C34.593 67.12 35.353 67.97 35.873 69.07C36.413 70.15 36.683 71.42 36.683 72.88V74.47H25.673C25.713 76.29 26.173 77.68 27.053 78.64C27.953 79.58 29.203 80.05 30.803 80.05C31.823 80.05 32.723 79.96 33.503 79.78C34.303 79.58 35.123 79.3 35.963 78.94V81.25C35.143 81.61 34.333 81.87 33.533 82.03C32.733 82.21 31.783 82.3 30.683 82.3C29.163 82.3 27.813 81.99 26.633 81.37C25.473 80.75 24.563 79.83 23.903 78.61C23.263 77.37 22.943 75.86 22.943 74.08C22.943 72.32 23.233 70.81 23.813 69.55C24.413 68.29 25.243 67.32 26.303 66.64C27.383 65.96 28.633 65.62 30.053 65.62ZM30.023 67.78C28.763 67.78 27.763 68.19 27.023 69.01C26.303 69.81 25.873 70.93 25.733 72.37H33.923C33.923 71.45 33.783 70.65 33.503 69.97C33.223 69.29 32.793 68.76 32.213 68.38C31.653 67.98 30.923 67.78 30.023 67.78ZM48.4266 65.62C50.4066 65.62 51.9966 66.31 53.1966 67.69C54.4166 69.07 55.0266 71.15 55.0266 73.93C55.0266 75.75 54.7466 77.29 54.1866 78.55C53.6466 79.79 52.8766 80.73 51.8766 81.37C50.8966 81.99 49.7366 82.3 48.3966 82.3C47.5766 82.3 46.8466 82.19 46.2066 81.97C45.5666 81.75 45.0166 81.47 44.5566 81.13C44.1166 80.77 43.7366 80.38 43.4166 79.96H43.2366C43.2766 80.3 43.3166 80.73 43.3566 81.25C43.3966 81.77 43.4166 82.22 43.4166 82.6V89.2H40.7766V65.92H42.9366L43.2966 68.11H43.4166C43.7366 67.65 44.1166 67.23 44.5566 66.85C45.0166 66.47 45.5566 66.17 46.1766 65.95C46.8166 65.73 47.5666 65.62 48.4266 65.62ZM47.9466 67.84C46.8666 67.84 45.9966 68.05 45.3366 68.47C44.6766 68.87 44.1966 69.48 43.8966 70.3C43.5966 71.12 43.4366 72.16 43.4166 73.42V73.93C43.4166 75.25 43.5566 76.37 43.8366 77.29C44.1166 78.21 44.5866 78.91 45.2466 79.39C45.9266 79.87 46.8466 80.11 48.0066 80.11C48.9866 80.11 49.7866 79.84 50.4066 79.3C51.0466 78.76 51.5166 78.03 51.8166 77.11C52.1366 76.17 52.2966 75.1 52.2966 73.9C52.2966 72.06 51.9366 70.59 51.2166 69.49C50.5166 68.39 49.4266 67.84 47.9466 67.84ZM65.3236 65.65C67.2836 65.65 68.7336 66.08 69.6736 66.94C70.6136 67.8 71.0836 69.17 71.0836 71.05V82H69.1636L68.6536 79.72H68.5336C68.0736 80.3 67.5936 80.79 67.0936 81.19C66.6136 81.57 66.0536 81.85 65.4136 82.03C64.7936 82.21 64.0336 82.3 63.1336 82.3C62.1736 82.3 61.3036 82.13 60.5236 81.79C59.7636 81.45 59.1636 80.93 58.7236 80.23C58.2836 79.51 58.0636 78.61 58.0636 77.53C58.0636 75.93 58.6936 74.7 59.9536 73.84C61.2136 72.96 63.1536 72.48 65.7736 72.4L68.5036 72.31V71.35C68.5036 70.01 68.2136 69.08 67.6336 68.56C67.0536 68.04 66.2336 67.78 65.1736 67.78C64.3336 67.78 63.5336 67.91 62.7736 68.17C62.0136 68.41 61.3036 68.69 60.6436 69.01L59.8336 67.03C60.5336 66.65 61.3636 66.33 62.3236 66.07C63.2836 65.79 64.2836 65.65 65.3236 65.65ZM66.1036 74.23C64.1036 74.31 62.7136 74.63 61.9336 75.19C61.1736 75.75 60.7936 76.54 60.7936 77.56C60.7936 78.46 61.0636 79.12 61.6036 79.54C62.1636 79.96 62.8736 80.17 63.7336 80.17C65.0936 80.17 66.2236 79.8 67.1236 79.06C68.0236 78.3 68.4736 77.14 68.4736 75.58V74.14L66.1036 74.23ZM93.3 65.92V82H90.93V71.74C90.93 71.32 90.94 70.88 90.96 70.42C91 69.96 91.04 69.51 91.08 69.07H90.99L85.74 82H83.52L78.42 69.07H78.33C78.37 69.51 78.39 69.96 78.39 70.42C78.41 70.88 78.42 71.35 78.42 71.83V82H76.05V65.92H79.56L84.63 78.85L89.79 65.92H93.3ZM100.923 75.73C100.923 75.91 100.913 76.17 100.893 76.51C100.893 76.83 100.883 77.18 100.863 77.56C100.843 77.92 100.823 78.27 100.803 78.61C100.783 78.93 100.763 79.19 100.743 79.39L109.353 65.92H112.593V82H110.133V72.52C110.133 72.2 110.133 71.78 110.133 71.26C110.153 70.74 110.173 70.23 110.193 69.73C110.213 69.21 110.233 68.82 110.253 68.56L101.703 82H98.4328V65.92H100.923V75.73ZM127.22 65.92H130.1L123.23 73.66L130.67 82H127.61L120.35 73.84V82H117.71V65.92H120.35V73.72L127.22 65.92ZM139.679 65.65C141.639 65.65 143.089 66.08 144.029 66.94C144.969 67.8 145.439 69.17 145.439 71.05V82H143.519L143.009 79.72H142.889C142.429 80.3 141.949 80.79 141.449 81.19C140.969 81.57 140.409 81.85 139.769 82.03C139.149 82.21 138.389 82.3 137.489 82.3C136.529 82.3 135.659 82.13 134.879 81.79C134.119 81.45 133.519 80.93 133.079 80.23C132.639 79.51 132.419 78.61 132.419 77.53C132.419 75.93 133.049 74.7 134.309 73.84C135.569 72.96 137.509 72.48 140.129 72.4L142.859 72.31V71.35C142.859 70.01 142.569 69.08 141.989 68.56C141.409 68.04 140.589 67.78 139.529 67.78C138.689 67.78 137.889 67.91 137.129 68.17C136.369 68.41 135.659 68.69 134.999 69.01L134.189 67.03C134.889 66.65 135.719 66.33 136.679 66.07C137.639 65.79 138.639 65.65 139.679 65.65ZM140.459 74.23C138.459 74.31 137.069 74.63 136.289 75.19C135.529 75.75 135.149 76.54 135.149 77.56C135.149 78.46 135.419 79.12 135.959 79.54C136.519 79.96 137.229 80.17 138.089 80.17C139.449 80.17 140.579 79.8 141.479 79.06C142.379 78.3 142.829 77.14 142.829 75.58V74.14L140.459 74.23Z" fill="black"/>
</svg>
